<?xml version="1.0" standalone="no"?>
<!DOCTYPE svg PUBLIC "-//W3C//DTD SVG 20010904//EN"
 "http://www.w3.org/TR/2001/REC-SVG-20010904/DTD/svg10.dtd">
<svg version="1.0" xmlns="http://www.w3.org/2000/svg"
 width="260.000000pt" height="260.000000pt" viewBox="0 0 260.000000 260.000000"
 preserveAspectRatio="xMidYMid meet">
<metadata>
Created by potrace 1.14, written by Peter Selinger 2001-2017
</metadata>
<g transform="translate(0.000000,260.000000) scale(0.100000,-0.100000)"
fill="#000000" stroke="none">
<path d="M520 1988 c-7 -40 -14 -82 -16 -93 -2 -11 -7 -36 -10 -55 -9 -50 -12
-65 -30 -160 -9 -47 -18 -96 -20 -110 -3 -14 -7 -33 -10 -42 -5 -18 -7 -17
130 -52 32 -9 61 -17 63 -20 2 -2 -18 -7 -44 -11 -26 -3 -76 -13 -110 -22
l-61 -15 -12 -61 c-6 -34 -17 -98 -25 -142 -8 -44 -17 -91 -20 -105 -16 -80
-26 -142 -23 -144 11 -8 121 -38 156 -43 23 -3 41 -7 39 -9 -2 -2 -50 -13
-108 -25 -57 -12 -105 -22 -106 -23 -2 -2 -63 -306 -63 -313 0 -2 160 -3 354
-3 354 0 355 0 379 23 55 52 73 106 54 162 -15 42 -67 99 -107 117 -17 7 -30
15 -30 18 0 3 28 5 63 6 67 0 219 11 252 18 11 2 42 7 69 10 27 4 54 10 58 12
5 3 24 8 41 11 96 15 244 90 297 151 45 51 55 85 40 140 -19 72 -89 129 -220
179 -47 18 -76 33 -65 33 129 7 348 56 505 112 316 114 465 301 379 475 l-24
48 -882 3 -881 2 -12 -72z"/>
</g>
</svg>
