<svg xmlns="http://www.w3.org/2000/svg" viewBox="0 0 50 25.96" xml:space="preserve"><linearGradient id="a" gradientUnits="userSpaceOnUse" x1="-2.503" y1="-7.207" x2="61.258" y2="43.32"><stop offset=".048" stop-color="#3c3232" stop-opacity="0"/><stop offset=".756" stop-color="#3c3232"/></linearGradient><path d="M43.94 2v7.58H48v6.8H43.94v6.58c0 .55-.45 1-1 1H3c-.55 0-1-.45-1-1V3c0-.55.45-1 1-1h40.94m.11-2H1.89C.85 0 0 .85 0 1.89v22.17c0 1.05.85 1.89 1.89 1.89h42.16c1.05 0 1.89-.85 1.89-1.89v-5.69h2.16c1.05 0 1.89-.85 1.89-1.89V9.47c0-1.05-.85-1.89-1.89-1.89h-2.16V1.89C45.94.85 45.1 0 44.05 0z" fill="url(#a)"/><linearGradient id="b" gradientUnits="userSpaceOnUse" x1="2.743" y1="-.281" x2="22.012" y2="33.642"><stop offset=".048" stop-color="#3c3232" stop-opacity="0"/><stop offset=".756" stop-color="#3c3232"/></linearGradient><path d="M6.11 4.46h8.91V21.5H6.11c-.55 0-1-.45-1-1V5.46c0-.55.45-1 1-1z" fill="url(#b)"/><linearGradient id="c" gradientUnits="userSpaceOnUse" x1="28.06" y1="-.418" x2="47.329" y2="33.506"><stop offset=".048" stop-color="#3c3232" stop-opacity="0"/><stop offset=".756" stop-color="#3c3232"/></linearGradient><path d="M30.93 4.46h8.91c.55 0 1 .45 1 1V20.5c0 .55-.45 1-1 1h-8.91V4.46z" fill="url(#c)"/><linearGradient id="d" gradientUnits="userSpaceOnUse" x1="15.259" y1="-.6" x2="34.89" y2="33.961"><stop offset=".048" stop-color="#3c3232" stop-opacity="0"/><stop offset=".756" stop-color="#3c3232"/></linearGradient><path fill="url(#d)" d="M18.02 4.46h9.91v17.03h-9.91z"/></svg>