<svg viewBox="0 0 28 22" fill="none" xmlns="http://www.w3.org/2000/svg"><path d="M23.477 2.291A22.243 22.243 0 0 0 17.935.573a.08.08 0 0 0-.088.042c-.254.46-.485.932-.69 1.415a20.651 20.651 0 0 0-6.225 0A13.84 13.84 0 0 0 10.23.615a.08.08 0 0 0-.088-.042 22.332 22.332 0 0 0-5.564 1.73.061.061 0 0 0-.016.019C1.034 7.595.068 12.738.54 17.819c.004.026.018.05.039.065a22.628 22.628 0 0 0 6.795 3.452.089.089 0 0 0 .096-.03c.528-.72.995-1.482 1.396-2.279a.085.085 0 0 0-.046-.119 15.427 15.427 0 0 1-2.125-1.012.088.088 0 0 1 0-.146l.422-.33a.077.077 0 0 1 .089 0 16.107 16.107 0 0 0 13.683 0 .08.08 0 0 1 .088 0c.138.115.28.227.422.334a.088.088 0 0 1 0 .146c-.679.395-1.39.732-2.125 1.008a.09.09 0 0 0-.048.052.093.093 0 0 0 .002.071c.41.787.875 1.543 1.393 2.263a.088.088 0 0 0 .095.03 22.53 22.53 0 0 0 6.808-3.451.077.077 0 0 0 .034-.065A22.849 22.849 0 0 0 23.5 2.306a.06.06 0 0 0-.023-.015ZM9.529 14.728c-1.343 0-2.447-1.235-2.447-2.746 0-1.51 1.081-2.75 2.447-2.75 1.365 0 2.466 1.243 2.446 2.747-.019 1.503-1.085 2.75-2.446 2.75Zm9.047 0c-1.343 0-2.447-1.235-2.447-2.746 0-1.51 1.081-2.75 2.447-2.75 1.365 0 2.465 1.243 2.446 2.747-.019 1.503-1.073 2.75-2.446 2.75Z" fill="currentColor"/></svg>