<svg viewBox="0 0 26 26" fill="none" xmlns="http://www.w3.org/2000/svg"><path d="M12.997 2.805h5.1c1.2 0 1.8.3 2.25.45.6.3 1.05.45 1.5.9.45.45.75.9.9 1.5.15.45.3 1.05.45 2.25v10.2c0 1.2-.3 1.8-.45 2.25-.3.6-.45 1.05-.9 1.5-.45.45-.9.75-1.5.9-.45.15-1.05.3-2.25.45h-10.2c-1.2 0-1.8-.3-2.25-.45-.6-.3-1.05-.45-1.5-.9-.45-.45-.75-.9-.9-1.5-.15-.45-.3-1.05-.45-2.25v-10.2c0-1.2.3-1.8.45-2.25.3-.6.45-1.05.9-1.5.45-.45.9-.75 1.5-.9.45-.15 1.05-.3 2.25-.45h5.1Zm0-2.25h-5.1c-1.35 0-2.25.3-3 .6s-1.5.75-2.25 1.5-1.05 1.35-1.5 2.25c-.3.75-.45 1.65-.6 3v10.2c0 1.35.3 2.25.6 3s.75 1.5 1.5 2.25 1.35 1.05 2.25 1.5c.75.3 1.65.45 3 .6h10.2c1.35 0 2.25-.3 3-.6s1.5-.75 2.25-1.5 1.05-1.35 1.5-2.25c.3-.75.45-1.65.6-3v-10.2c0-1.35-.3-2.25-.6-3s-.75-1.5-1.5-2.25-1.35-1.05-2.25-1.5c-.75-.3-1.65-.45-3-.6h-5.1Z" fill="currentColor"/><path d="M12.997 6.555c-3.6 0-6.45 2.85-6.45 6.45s2.85 6.45 6.45 6.45 6.45-2.85 6.45-6.45-2.85-6.45-6.45-6.45Zm0 10.65c-2.25 0-4.2-1.8-4.2-4.2 0-2.25 1.8-4.2 4.2-4.2 2.25 0 4.2 1.8 4.2 4.2 0 2.25-1.95 4.2-4.2 4.2ZM19.597 7.905a1.5 1.5 0 1 0 0-3 1.5 1.5 0 0 0 0 3Z" fill="currentColor"/></svg>