<svg viewBox="0 0 24 24" fill="none" xmlns="http://www.w3.org/2000/svg"><path fill-rule="evenodd" clip-rule="evenodd" d="M14.04 8.628a5.879 5.879 0 0 0-3.096-.888 5.876 5.876 0 0 0-4.056 1.631L1.68 14.455A5.509 5.509 0 0 0 0 18.4c0 3.082 2.568 5.588 5.736 5.6a5.801 5.801 0 0 0 4.056-1.63l4.308-4.186a.419.419 0 0 0 .12-.287.394.394 0 0 0-.408-.396h-.168a6.818 6.818 0 0 1-2.628-.492.385.385 0 0 0-.444.084l-3.096 3.022c-.96.935-2.52.935-3.48 0a2.36 2.36 0 0 1 0-3.393l5.232-5.085a2.494 2.494 0 0 1 3.468 0 1.726 1.726 0 0 0 2.304 0c.276-.276.456-.635.48-1.019A1.582 1.582 0 0 0 15 9.383a5.327 5.327 0 0 0-.96-.755Zm8.28-6.991c-2.244-2.183-5.868-2.183-8.112 0L9.912 5.822c-.12.12-.156.287-.084.42.072.143.216.24.384.24h.156c.9 0 1.788.167 2.616.503a.41.41 0 0 0 .444-.084l3.084-2.998a2.509 2.509 0 0 1 3.48 0 2.36 2.36 0 0 1 0 3.394l-3.84 3.74-.036.037-1.344 1.307c-.948.935-2.508.935-3.468 0a1.726 1.726 0 0 0-2.304 0 1.539 1.539 0 0 0-.48 1.019c-.024.468.144.911.48 1.235.468.456 1.032.84 1.632 1.103.096.036.18.072.264.108.042.018.087.033.132.048.045.015.09.03.132.048.07.03.146.051.218.071l.046.013.24.06a5.952 5.952 0 0 0 1.104.156h.312l.24-.024c.04 0 .082-.005.126-.011.05-.006.105-.013.162-.013h.144l.276-.036.132-.024.24-.048h.036a5.726 5.726 0 0 0 2.664-1.463l5.22-5.084.145-.144c2.1-2.182 2.04-5.66-.145-7.758Z" fill="#0F0F19"/></svg>