<svg viewBox="0 0 102 74" fill="none" xmlns="http://www.w3.org/2000/svg"><path d="M13.829 0 8.874 26.676a92.483 92.483 0 0 0 10.619 2.777A78.518 78.518 0 0 0 7.926 31.78l-4.13 22.005A89.163 89.163 0 0 0 14.2 56.492 75.749 75.749 0 0 0 2.86 58.76L0 74h34.364c2.746-1.922 4.382-4.338 4.382-6.964 0-3.583-3.048-6.777-7.806-8.855.688.013 1.38.02 2.075.02 22.399 0 38.929-6.625 38.929-14.797 0-5.01-5.227-9.438-15.65-12.115 26.099-2.336 45.685-12.137 45.685-23.874-.045-2.68-.997-5.277-2.718-7.415H13.83Z" fill="currentColor"/></svg>