<svg viewBox="0 0 175 33" fill="none" xmlns="http://www.w3.org/2000/svg"><path d="m82.101 0-6.22 33h5.2L87.3 0h-5.2ZM59.327 4.546h16.749L76.985 0H55.024L48.8 33h5.201l2.637-14.044h13.825l.848-4.545H57.488l1.839-9.865ZM157.644 0h-9.431l-6.225 33h11.698c12.229 0 20.445-7.572 20.445-18.841C174.131 5.558 167.659 0 157.644 0Zm-3.616 28.454h-5.989l4.477-23.908h4.835c3.665 0 6.52.807 8.488 2.4 2.032 1.646 3.062 4.103 3.062 7.305 0 8.628-5.838 14.203-14.873 14.203ZM114.975 4.546 115.883 0H93.385l-6.223 33h23.128l.849-4.546H93.214l1.885-9.956h14.361l.848-4.546H95.947l1.742-9.406h17.286ZM127.183 0h-5.201l-6.222 33h20.781l.848-4.546H121.81L127.183 0ZM6.167 0l-2.21 11.896c1.55.505 3.131.919 4.736 1.238-1.746.217-3.471.564-5.159 1.038l-1.841 9.813c1.517.495 3.067.898 4.64 1.207a33.79 33.79 0 0 0-5.057 1.011L0 33h15.324c1.225-.857 1.955-1.935 1.955-3.105 0-1.598-1.36-3.023-3.481-3.95.306.006.615.01.925.01 9.988 0 17.36-2.955 17.36-6.6 0-2.234-2.33-4.208-6.979-5.402 11.639-1.041 20.373-5.412 20.373-10.646A5.417 5.417 0 0 0 44.265 0H6.167Z" fill="currentColor"/></svg>