<svg viewBox="0 0 22 24" fill="none" xmlns="http://www.w3.org/2000/svg"><path fillRule="evenodd" clipRule="evenodd" d="M15.677 0c0 .357.034.708.095 1.048a5.763 5.763 0 0 0 2.517 3.76c.902.592 1.97.932 3.123.932v4.123a9.807 9.807 0 0 1-5.735-1.844v8.386C15.677 20.59 12.27 24 8.09 24a7.556 7.556 0 0 1-4.349-1.377A7.588 7.588 0 0 1 .5 16.405c0-4.19 3.402-7.595 7.583-7.59.35 0 .69.028 1.025.073v.975l-.013.006h.013V13.1a3.457 3.457 0 0 0-1.025-.162 3.468 3.468 0 0 0-3.463 3.466c0 1.332.757 2.485 1.86 3.07.016.023.032.045.05.067a.594.594 0 0 0-.045-.072c.485.256 1.03.4 1.61.4a3.468 3.468 0 0 0 3.457-3.337L11.557 0h4.12Z" fill="currentColor"/><path fillRule="evenodd" clipRule="evenodd" d="M15.677 0c0 .357.034.708.095 1.048a5.763 5.763 0 0 0 2.517 3.76c.902.592 1.97.932 3.123.932v4.123a9.807 9.807 0 0 1-5.735-1.844v8.386C15.677 20.59 12.27 24 8.09 24a7.556 7.556 0 0 1-4.349-1.377A7.588 7.588 0 0 1 .5 16.405c0-4.19 3.402-7.595 7.583-7.59.35 0 .69.028 1.025.073v.975l-.013.006h.013V13.1a3.457 3.457 0 0 0-1.025-.162 3.468 3.468 0 0 0-3.463 3.466c0 1.332.757 2.485 1.86 3.07.016.023.032.045.05.067a.594.594 0 0 0-.045-.072c.485.256 1.03.4 1.61.4a3.468 3.468 0 0 0 3.457-3.337L11.557 0h4.12Z" fill="currentColor"/></svg>